# xmcd CD database file
#
# Track frame offsets:
#	182
#	8570
#	52422
#	83235
#	108525
#	132602
#	156757
#	177840
#
# Disc length: 2847 seconds
#
# Revision: 0
# Processed by: cddbd v1.5.1PL2 Copyright (c) Steve Scherf et al.
# Submitted via: CDex 1.51
#
DISCID=680b1d08
DTITLE=Dianne Reeves, Randy Brecker, Tom Scott, Robben Ford, Bill Evans - Echoes of Ellington, Vol. 1
DYEAR=1987
DGENRE=Jazz
TTITLE0=Intro- In a Sentimental Mood
TTITLE1=It Don't Mean a Thing
TTITLE2=I Got it Bad and That Ain't Good
TTITLE3=Prelude to a Kiss
TTITLE4=Ring Dem Bells
TTITLE5=In a Sentimental Mood
TTITLE6=I'm Just a Lucky So and So
TTITLE7=Medley: Do Nothin' Till You Hear From Me/Don't Get Around Much Anymore
EXTD=YEAR: 1987
EXTT0=
EXTT1=
EXTT2=
EXTT3=
EXTT4=
EXTT5=
EXTT6=
EXTT7=
PLAYORDER=
